<svg width="28" height="28" viewBox="0 0 28 28" fill="none" xmlns="http://www.w3.org/2000/svg">
<path style="fill: black;" d="M15.1862 12.2328L15.1834 12.2403H10.9831C10.3734 12.2403 9.80583 12.4238 9.33241 12.7382H7.99222C7.44296 12.7382 6.99611 12.2915 6.99611 11.7423C6.99611 11.1932 7.44296 10.7464 7.99222 10.7464H9.48638C9.76143 10.7464 9.98443 10.5234 9.98443 10.2484C9.98443 9.97344 9.76143 9.75049 9.48638 9.75049H7.99222C6.89371 9.75049 6 10.644 6 11.7423C6 12.8406 6.89371 13.7341 7.99222 13.7341H8.39448C8.13881 14.1745 7.99222 14.6857 7.99222 15.2306V21.469C7.99222 21.744 8.21521 21.967 8.49027 21.967H10.4825C10.7575 21.967 10.9805 21.744 10.9805 21.469V17.2666L15.5294 17.6751V21.5022C15.5294 21.7772 15.7524 22.0002 16.0275 22.0002H18.0197C18.2948 22.0002 18.5178 21.7772 18.5178 21.5022V16.7712L19.1315 13.7032L15.1862 12.2328Z" fill="#A6A6A8"/>
<path style="fill: black;" d="M22.5016 9.25222H20.9987C20.9179 8.4921 20.2744 7.89114 19.4817 7.89114H18.646L18.3411 6.39727C18.2413 5.90864 17.5605 5.85546 17.3863 6.32311L15.5332 11.2991L19.3287 12.7138L19.4235 12.2399H20.5094C21.8825 12.2399 22.9997 11.123 22.9997 9.75017C22.9997 9.47517 22.7767 9.25222 22.5016 9.25222Z" fill="#A6A6A8"/>
</svg>
